Run_30001
nRows=4
nColumns=164

# SIMM Motion File Header:
name Run_30001
datacolumns 164
datarows 4
otherdata 1
range 0.07000000 0.10000000
endheader
time	pelvis_tilt	pelvis_list	pelvis_rotation	pelvis_tx	pelvis_ty	pelvis_tz	hip_flexion_r	hip_adduction_r	hip_rotation_r	knee_angle_r	ankle_angle_r	hip_flexion_l	hip_adduction_l	hip_rotation_l	knee_angle_l	ankle_angle_l	lumbar_extension	lumbar_bending	lumbar_rotation	arm_flex_r	arm_add_r	arm_rot_r	elbow_flex_r	pro_sup_r	arm_flex_l	arm_add_l	arm_rot_l	elbow_flex_l	pro_sup_l	subtalar_angle_r	mtp_angle_r	subtalar_angle_l	mtp_angle_l	wrist_flex_r	wrist_dev_r	wrist_flex_l	wrist_dev_l	LASI_tx	LASI_ty	LASI_tz	RASI_tx	RASI_ty	RASI_tz	LPSI_tx	LPSI_ty	LPSI_tz	RPSI_tx	RPSI_ty	RPSI_tz	RTH1_tx	RTH1_ty	RTH1_tz	RTH2_tx	RTH2_ty	RTH2_tz	RTH3_tx	RTH3_ty	RTH3_tz	LTH1_tx	LTH1_ty	LTH1_tz	LTH2_tx	LTH2_ty	LTH2_tz	LTH3_tx	LTH3_ty	LTH3_tz	RTB1_tx	RTB1_ty	RTB1_tz	RTB2_tx	RTB2_ty	RTB2_tz	RTB3_tx	RTB3_ty	RTB3_tz	LTB1_tx	LTB1_ty	LTB1_tz	LTB2_tx	LTB2_ty	LTB2_tz	LTB3_tx	LTB3_ty	LTB3_tz	RCAL_tx	RCAL_ty	RCAL_tz	RTOE_tx	RTOE_ty	RTOE_tz	RMT5_tx	RMT5_ty	RMT5_tz	LCAL_tx	LCAL_ty	LCAL_tz	LTOE_tx	LTOE_ty	LTOE_tz	LACR_tx	LACR_ty	LACR_tz	RACR_tx	RACR_ty	RACR_tz	CLAV_tx	CLAV_ty	CLAV_tz	C7_tx	C7_ty	C7_tz	RUA1_tx	RUA1_ty	RUA1_tz	RUA2_tx	RUA2_ty	RUA2_tz	RUA3_tx	RUA3_ty	RUA3_tz	RLEL_tx	RLEL_ty	RLEL_tz	RMEL_tx	RMEL_ty	RMEL_tz	LUA1_tx	LUA1_ty	LUA1_tz	LUA2_tx	LUA2_ty	LUA2_tz	LUA3_tx	LUA3_ty	LUA3_tz	LLEL_tx	LLEL_ty	LLEL_tz	LMEL_tx	LMEL_ty	LMEL_tz	RFAsuperior_tx	RFAsuperior_ty	RFAsuperior_tz	RFAradius_tx	RFAradius_ty	RFAradius_tz	RFAulna_tx	RFAulna_ty	RFAulna_tz	LFAsuperior_tx	LFAsuperior_ty	LFAsuperior_tz	LFAradius_tx	LFAradius_ty	LFAradius_tz	LFAulna_tx	LFAulna_ty	LFAulna_tz	LMT5_tx	LMT5_ty	LMT5_tz
      0.07000000	     -5.41333665	      3.06225408	      1.53441803	      0.72797950	      1.05276162	     -0.32390321	    -10.05332178	     -1.40344921	     -8.14401630	    -40.33001083	    -21.91034618	     27.30981498	      6.88828937	     -3.69779317	    -17.67922440	    -10.44525663	     -1.28291126	     -1.52030981	      4.98533194	    -16.14260740	    -18.83380347	     -4.52687073	     97.33213415	     90.71466262	    -41.86193765	    -39.59415608	     14.41311537	     97.26851300	     70.85949402	      0.00000000	      0.00000000	      0.00000000	      0.00000000	      0.00000000	      0.00000000	      0.00000000	      0.00000000	      0.72820434	      1.06173228	     -0.45217483	      0.73198916	      1.03995858	     -0.19657826	      0.54995416	      1.13042365	     -0.36367819	      0.55479899	      1.13121442	     -0.27857096	      0.63759476	      0.91406025	     -0.14215926	      0.64704611	      0.76856439	     -0.16112351	      0.54036141	      0.69053941	     -0.17322572	      0.68354995	      0.94113610	     -0.51015549	      0.78502354	      0.84899094	     -0.48764018	      0.74721140	      0.69542040	     -0.46871310	      0.45019957	      0.45387894	     -0.22544629	      0.33883569	      0.43089071	     -0.18141771	      0.28292997	      0.34266997	     -0.23938460	      0.85372313	      0.48864952	     -0.40353418	      0.80404236	      0.40285784	     -0.46504364	      0.86221305	      0.28327971	     -0.38971868	      0.11292556	      0.37782185	     -0.27696273	      0.20392063	      0.16205467	     -0.27123583	      0.14030812	      0.16752777	     -0.20202373	      0.75488984	      0.12817562	     -0.35926248	      0.98444628	      0.13267642	     -0.36946863	      0.68017903	      1.58975316	     -0.48274429	      0.69693337	      1.56439197	     -0.15035539	      0.76591686	      1.53415636	     -0.30337620	      0.62819351	      1.60701661	     -0.32881369	      0.64670218	      1.45723339	     -0.06519022	      0.57105093	      1.38410440	     -0.08227652	      0.61467651	      1.34737222	     -0.03013713	      0.60397841	      1.25541736	      0.00071550	      0.56791088	      1.22912243	     -0.07192585	      0.59587017	      1.53869352	     -0.57892021	      0.50836698	      1.49154934	     -0.56566217	      0.52603563	      1.45989977	     -0.63931484	      0.48467332	      1.38874021	     -0.68656766	      0.42797178	      1.37970748	     -0.63394818	      0.67373900	      1.21398131	     -0.01158822	      0.85170641	      1.19967447	     -0.11476955	      0.83368731	      1.13921634	     -0.08195001	      0.53553658	      1.27426936	     -0.66468177	      0.62199126	      1.18290880	     -0.56640908	      0.56993905	      1.14805845	     -0.59083358	      0.95498943	      0.08346205	     -0.44130520
      0.08000000	     -5.35230228	      2.91856463	      2.01195946	      0.72883384	      1.04894139	     -0.32478227	     -8.67437581	     -1.65855382	     -8.82911555	    -45.52990426	    -20.85389412	     26.34311676	      7.09166253	     -3.49116677	    -15.69988318	    -11.13441794	     -1.17237287	     -1.73315811	      4.20577734	    -16.84100259	    -18.77806321	     -4.21462324	     96.12330038	     91.20884971	    -40.53258223	    -39.78116401	     14.86142770	     97.26555882	     70.94272287	      0.00000000	      0.00000000	      0.00000000	      0.00000000	      0.00000000	      0.00000000	      0.00000000	      0.00000000	      0.72860639	      1.05675654	     -0.45243146	      0.73400887	      1.03752486	     -0.19703737	      0.55037302	      1.12614556	     -0.36332583	      0.55584096	      1.12703965	     -0.27819036	      0.64206413	      0.91013493	     -0.14163391	      0.65412113	      0.76445772	     -0.15976499	      0.54968234	      0.68442812	     -0.17219694	      0.68280486	      0.93590041	     -0.51009342	      0.78039121	      0.84094554	     -0.48774799	      0.74113729	      0.68938035	     -0.46864602	      0.45524994	      0.45185574	     -0.22393384	      0.34241011	      0.43598082	     -0.18040574	      0.28130607	      0.35212008	     -0.23907780	      0.84999943	      0.48419509	     -0.40211246	      0.80163744	      0.39763654	     -0.46340089	      0.86276660	      0.27921990	     -0.38866386	      0.11343606	      0.39701331	     -0.27685431	      0.19274950	      0.17666732	     -0.26824933	      0.12966353	      0.18699887	     -0.19792172	      0.75745551	      0.12285365	     -0.35736506	      0.98725071	      0.12886338	     -0.36825557	      0.67982953	      1.58488954	     -0.48523990	      0.69654424	      1.56189216	     -0.15227476	      0.76570162	      1.53118169	     -0.30499088	      0.62803993	      1.60358211	     -0.33130509	      0.64499970	      1.45601131	     -0.06648051	      0.56882637	      1.38341899	     -0.08427435	      0.61165334	      1.34656487	     -0.03128014	      0.59958078	      1.25422761	     -0.00053027	      0.56354334	      1.22880052	     -0.07265749	      0.59685226	      1.53123822	     -0.58167989	      0.51038009	      1.48259069	     -0.56965416	      0.52988797	      1.45046498	     -0.64292485	      0.49048943	      1.37878319	     -0.69115949	      0.43321077	      1.36863053	     -0.63808565	      0.66788889	      1.21074706	     -0.01160866	      0.84636791	      1.19018413	     -0.11436614	      0.82659270	      1.13102344	     -0.08023391	      0.54322780	      1.26533138	     -0.66689497	      0.63078688	      1.17682200	     -0.56682644	      0.57982565	      1.14075058	     -0.59165963	      0.95851874	      0.07845696	     -0.43985983
      0.09000000	     -5.18902444	      2.80894143	      2.53504846	      0.72931737	      1.04453662	     -0.32556697	     -7.30250222	     -1.88126088	     -9.30962537	    -50.72362016	    -19.90295645	     25.51436502	      7.32953510	     -3.41241232	    -14.59821811	    -12.38477662	     -1.24412291	     -2.01157819	      3.34322744	    -17.47237568	    -18.73373534	     -3.88357824	     94.77250904	     90.96854359	    -39.00837948	    -40.00658144	     15.32188592	     97.24813103	     71.13557684	      0.00000000	      0.00000000	      0.00000000	      0.00000000	      0.00000000	      0.00000000	      0.00000000	      0.00000000	      0.72864388	      1.05093979	     -0.45242891	      0.73583402	      1.03442866	     -0.19787851	      0.55042747	      1.12102640	     -0.36271585	      0.55589617	      1.12205872	     -0.27714194	      0.64689664	      0.90525446	     -0.14100109	      0.66169026	      0.75971309	     -0.15830334	      0.55979738	      0.67733231	     -0.17076645	      0.68149292	      0.93030453	     -0.51033358	      0.77655255	      0.83350179	     -0.48832047	      0.73663749	      0.68359964	     -0.46887120	      0.46164801	      0.44935647	     -0.22245874	      0.34776327	      0.44039784	     -0.17926440	      0.28165187	      0.36120712	     -0.23870418	      0.84604064	      0.47885924	     -0.40132659	      0.79811285	      0.39175543	     -0.46193933	      0.86136099	      0.27408717	     -0.38774526	      0.11623693	      0.41571853	     -0.27587375	      0.18407906	      0.19132703	     -0.26607357	      0.12227275	      0.20583419	     -0.19448615	      0.75675887	      0.11865690	     -0.35479972	      0.98646868	      0.12186026	     -0.36564421	      0.67945562	      1.57906227	     -0.48767863	      0.69604837	      1.55864195	     -0.15414611	      0.76547386	      1.52738500	     -0.30644638	      0.62782808	      1.59931258	     -0.33372608	      0.64308269	      1.45404874	     -0.06801616	      0.56647651	      1.38204770	     -0.08628935	      0.60840484	      1.34502504	     -0.03239537	      0.59497927	      1.25245111	     -0.00155043	      0.55885749	      1.22775293	     -0.07337652	      0.59815410	      1.52279716	     -0.58465638	      0.51267669	      1.47244025	     -0.57404119	      0.53418276	      1.43992309	     -0.64672565	      0.49696973	      1.36754831	     -0.69523369	      0.43903787	      1.35634430	     -0.64260110	      0.66201678	      1.20693655	     -0.01142508	      0.84061388	      1.17962328	     -0.11284839	      0.81866812	      1.12149113	     -0.07818801	      0.55182907	      1.25535922	     -0.66915361	      0.64028669	      1.16997302	     -0.56720084	      0.59065740	      1.13265098	     -0.59261779	      0.95751390	      0.07046663	     -0.43669121
      0.10000000	     -4.95914302	      2.72990830	      3.08622167	      0.72941362	      1.03921086	     -0.32616017	     -5.74027784	     -2.09063243	     -9.66467900	    -56.08842112	    -18.90371884	     24.99823091	      7.57477231	     -3.60561922	    -14.95820321	    -13.77489422	     -1.45593374	     -2.35013710	      2.39064823	    -18.03519751	    -18.68778472	     -3.51390353	     93.18062256	     89.74366781	    -37.21784790	    -40.27836591	     15.83085046	     97.18816277	     71.52874307	      0.00000000	      0.00000000	      0.00000000	      0.00000000	      0.00000000	      0.00000000	      0.00000000	      0.00000000	      0.72832496	      1.04394517	     -0.45204818	      0.73730337	      1.03029653	     -0.19902348	      0.55012543	      1.11472703	     -0.36172631	      0.55534844	      1.11596117	     -0.27561160	      0.65196763	      0.89910938	     -0.14026897	      0.66999767	      0.75398849	     -0.15677562	      0.57106638	      0.66889966	     -0.16880919	      0.67946047	      0.92410857	     -0.51073265	      0.77402852	      0.82694906	     -0.48947164	      0.73403467	      0.67778155	     -0.46907680	      0.47008489	      0.44617437	     -0.22089881	      0.35578947	      0.44384028	     -0.17787846	      0.28505332	      0.36961668	     -0.23810092	      0.84173568	      0.47198035	     -0.40116899	      0.79293042	      0.38471242	     -0.46062730	      0.85649979	      0.26713803	     -0.38658040	      0.12250766	      0.43343593	     -0.27374409	      0.17937160	      0.20584209	     -0.26497485	      0.11961234	      0.22350460	     -0.19189909	      0.75023270	      0.11583031	     -0.35098571	      0.97958185	      0.11054120	     -0.36131254	      0.67916660	      1.57182701	     -0.49008091	      0.69537113	      1.55417811	     -0.15594843	      0.76518705	      1.52232055	     -0.30774087	      0.62755129	      1.59379789	     -0.33608176	      0.64093728	      1.45100164	     -0.06972759	      0.56392291	      1.37958879	     -0.08828349	      0.60484857	      1.34232064	     -0.03347832	      0.59002882	      1.24968212	     -0.00231718	      0.55373735	      1.22557441	     -0.07408614	      0.59997202	      1.51289173	     -0.58791574	      0.51548252	      1.46057910	     -0.57895429	      0.53915756	      1.42779542	     -0.65074460	      0.50451826	      1.35456249	     -0.69884922	      0.44589962	      1.34222943	     -0.64761279	      0.65579029	      1.20198825	     -0.01095823	      0.83419823	      1.16751844	     -0.10980862	      0.80951727	      1.10999437	     -0.07569336	      0.56176633	      1.24396372	     -0.67143380	      0.65082974	      1.16209927	     -0.56742228	      0.60291598	      1.12341248	     -0.59369732	      0.94887875	      0.05993388	     -0.43218607
